<svg width="12" height="15" viewBox="0 0 12 15" fill="none" xmlns="http://www.w3.org/2000/svg">
<path d="M9.7753 2.53488L9.40464 12.7001C9.39834 12.8746 9.24714 13.0224 9.07494 13.0224H2.67507C2.50287 13.0224 2.35167 12.8741 2.34537 12.7001L1.97471 2.53488C1.96474 2.2542 1.73268 2.03542 1.45653 2.04609C1.18037 2.05676 0.965119 2.29209 0.975619 2.57277L1.34627 12.738C1.37252 13.4584 1.96526 14.039 2.6756 14.039H9.07547C9.78528 14.039 10.3785 13.4589 10.4048 12.738L10.7754 2.57277C10.7854 2.29209 10.5702 2.05623 10.2945 2.04609C10.0189 2.03595 9.78633 2.25473 9.77635 2.53488H9.7753Z" fill="#323232"/>
<path d="M5.47495 4.58654V11.4979C5.47495 11.7225 5.65398 11.9045 5.875 11.9045C6.09603 11.9045 6.27506 11.7225 6.27506 11.4979V4.58654C6.27506 4.36189 6.09603 4.17993 5.875 4.17993C5.65398 4.17993 5.47495 4.36189 5.47495 4.58654Z" fill="#323232"/>
<path d="M3.27513 4.5983L3.47515 11.5096C3.48145 11.7343 3.66573 11.9109 3.88676 11.904C4.10779 11.897 4.28157 11.7103 4.27474 11.4856L4.07472 4.57429C4.06842 4.34964 3.88414 4.17301 3.66311 4.17995C3.44208 4.18688 3.2683 4.37365 3.27513 4.5983Z" fill="#323232"/>
<path d="M7.67526 4.57426L7.47523 11.4856C7.46893 11.7102 7.64271 11.8975 7.86321 11.9039C8.08371 11.9103 8.26852 11.7337 8.27482 11.5096L8.47485 4.59827C8.48115 4.37362 8.30737 4.18632 8.08686 4.17992C7.86636 4.17352 7.68156 4.35014 7.67526 4.57426Z" fill="#323232"/>
<path d="M0.874809 2.75677H10.8752C11.1513 2.75677 11.375 2.52945 11.375 2.24877C11.375 1.96809 11.1513 1.74078 10.8752 1.74078H0.874809C0.598654 1.74078 0.375 1.96809 0.375 2.24877C0.375 2.52945 0.598654 2.75677 0.874809 2.75677Z" fill="#323232"/>
<path d="M4.35561 2.08341L4.56404 1.34276C4.60866 1.18428 4.81079 1.029 4.97355 1.029H6.77695C6.93971 1.029 7.14184 1.18374 7.18646 1.34276L7.39489 2.08341L8.35618 1.80433L8.14775 1.06368C7.98028 0.468704 7.38597 0.0130005 6.77695 0.0130005H4.97355C4.36454 0.0130005 3.7697 0.468704 3.60275 1.06368L3.39432 1.80433L4.35561 2.08341Z" fill="#323232"/>
</svg>
